# xmcd
# 
# Track frame offsets:
#     150
#     17732
#     33093
#     55205
#     75502
#     84494
#     101182
#     117240
#     135235
#     149451
#     171079
#     184709
# 
# Disc length: 2756
# 
# Revision: 1
# Processed by: cddbd v1.5.2PL0 Copyright (c) Steve Scherf et al.
# Submitted via: fre:ac v1.1beta1pre4
# 
DISCID=930ac20c
DTITLE=Front Country - Sake of the Sound
DYEAR=2014
DGENRE=Bluegrass
TTITLE0=Gospel Train
TTITLE1=One Kind Word
TTITLE2=Rock Salt and Nails
TTITLE3=Sake of the Sound
TTITLE4=Daysleeper
TTITLE5=Undertaker
TTITLE6=Glacier Song
TTITLE7=Like a River
TTITLE8=Old Country
TTITLE9=Colorado
TTITLE10=Long Ago, Far Away
TTITLE11=Lovin's for Fools
EXTD=
EXTT0=
EXTT1=
EXTT2=
EXTT3=
EXTT4=
EXTT5=
EXTT6=
EXTT7=
EXTT8=
EXTT9=
EXTT10=
EXTT11=
PLAYORDER=
